<svg xmlns="http://www.w3.org/2000/svg" viewBox="0 0 100 125" fill="none" x="0px" y="0px"><path d="M46.3899 95C46.3288 94.9799 46.2837 94.9447 46.2367 94.9421C45.8035 94.918 45.3695 94.908 44.937 94.877C44.5412 94.8485 44.1466 94.8022 43.7522 94.7579C43.437 94.7226 43.1216 94.6861 42.8086 94.6362C42.4907 94.5856 42.1769 94.5096 41.8589 94.4598C41.5359 94.4093 41.2081 94.3883 40.8858 94.3342C40.4755 94.2653 40.0629 94.1976 39.6616 94.0906C39.1402 93.9516 38.6235 93.7897 38.1146 93.6099C37.4718 93.3828 36.8587 93.0939 36.362 92.6058C36.2449 92.4908 36.1895 92.3615 36.1928 92.1922C36.2015 91.7404 36.1843 91.2878 36.201 90.8365C36.2085 90.6349 36.1541 90.4686 36.0191 90.3388C35.8374 90.1641 35.7973 89.9394 35.7785 89.7149C35.7432 89.2926 35.7555 88.8657 35.7086 88.4451C35.6478 87.8999 35.631 87.3523 35.5818 86.808C35.5261 86.1916 35.4969 85.5758 35.4586 84.9594C35.4372 84.6159 35.4174 84.2724 35.4179 83.9288C35.418 83.818 35.3626 83.7637 35.2976 83.7059C35.1569 83.5805 35.1224 83.4261 35.1039 83.2408C35.0723 82.9256 35.082 82.6058 34.9962 82.2941C34.948 82.1193 34.9467 81.9308 34.9319 81.7479C34.9082 81.4551 34.901 81.1608 34.8683 80.8692C34.817 80.411 34.7469 79.955 34.6914 79.4972C34.6633 79.2654 34.6401 79.0322 34.632 78.7991C34.6199 78.4501 34.576 78.107 34.514 77.7634C34.4764 77.5546 34.5081 77.3406 34.4591 77.124C34.3973 76.8505 34.4448 76.5517 34.379 76.2798C34.3099 75.9947 34.394 75.6964 34.2704 75.4224C34.2554 75.389 34.2711 75.3428 34.2679 75.3028C34.2284 74.8072 34.2039 74.3096 34.1429 73.8165C34.094 73.4217 34.0486 73.0283 34.0208 72.6308C33.9894 72.1817 33.9007 71.7369 33.849 71.2887C33.8166 71.0072 33.8343 70.7174 33.7785 70.4417C33.725 70.1773 33.7571 69.907 33.6741 69.6437C33.6174 69.4639 33.6656 69.2631 33.6162 69.066C33.5532 68.8139 33.5685 68.5426 33.5445 68.28C33.5305 68.1271 33.503 67.9754 33.486 67.8227C33.4702 67.6796 33.4766 67.5401 33.4365 67.3926C33.3736 67.1615 33.3872 66.9099 33.3643 66.6674C33.3363 66.3711 33.3159 66.075 33.25 65.7819C33.2079 65.5952 33.2432 65.3998 33.1945 65.2029C33.132 64.9505 33.1672 64.6752 33.1178 64.418C33.0615 64.124 33.0894 63.8242 33.0112 63.5305C32.9521 63.3082 32.9672 63.0667 32.9423 62.8345C32.9096 62.5288 32.9131 62.2184 32.8243 61.9196C32.8133 61.8827 32.8256 61.8394 32.8224 61.7995C32.7829 61.3038 32.758 60.8063 32.6971 60.3132C32.6534 59.9584 32.6091 59.6045 32.5737 59.2484C32.5354 58.8633 32.4888 58.4789 32.4522 58.0931C32.4194 57.7482 32.3671 57.4044 32.3329 57.0581C32.2968 56.693 32.2594 56.3262 32.2093 55.9637C32.1504 55.5366 32.1507 55.1024 32.0463 54.6795C32.0008 54.4951 32.0323 54.2971 31.9891 54.1012C31.9307 53.8368 31.9482 53.5565 31.9167 53.2849C31.8893 53.0489 31.8312 52.8166 31.8013 52.5809C31.777 52.389 31.7946 52.1979 31.7494 52.001C31.6866 51.7279 31.7222 51.4332 31.6713 51.1559C31.6264 50.9115 31.6441 50.6619 31.5661 50.4184C31.5054 50.2288 31.5136 50.0161 31.4987 49.8131C31.475 49.4902 31.5011 49.1562 31.4252 48.8468C31.3499 48.5402 31.45 48.2221 31.318 47.929C31.3105 47.9123 31.3178 47.8892 31.3169 47.8691C31.297 47.4355 31.2692 47.002 31.2606 46.5682C31.2573 46.3992 31.2098 46.2617 31.0836 46.159C30.9222 46.0277 30.8839 45.8369 30.8392 45.6572C30.7458 45.2818 30.6698 44.9019 30.5971 44.5218C30.5469 44.2592 30.529 43.9899 30.4703 43.7295C30.3809 43.3324 30.3576 42.9246 30.2411 42.5304C30.1606 42.2576 30.1602 41.9621 30.1103 41.6792C30.061 41.4006 29.9897 41.126 29.9368 40.8479C29.8888 40.5951 29.8555 40.3396 29.8105 40.0862C29.7557 39.7782 29.6934 39.4715 29.638 39.1636C29.5926 38.9105 29.5552 38.656 29.5094 38.403C29.452 38.0859 29.3851 37.7705 29.3308 37.453C29.284 37.1795 29.2566 36.9025 29.2068 36.6297C29.1561 36.3515 29.0912 36.0759 29.0252 35.8009C29.0152 35.7593 28.9716 35.7168 28.9324 35.6933C28.8531 35.6457 28.7697 35.6 28.682 35.5722C28.0522 35.3732 27.5666 34.9857 27.2513 34.4125C27.133 34.1973 27.0883 33.9339 27.0475 33.6862C27.0197 33.518 26.9734 33.3587 27.0196 33.1599C27.0804 32.8983 27.2237 32.7281 27.4037 32.5967C27.905 32.2304 28.4606 31.9685 29.0726 31.8309C29.4006 31.7572 29.7202 31.6464 30.0477 31.5701C30.4066 31.4865 30.7705 31.4239 31.132 31.3512C31.4284 31.2917 31.7236 31.2259 32.0211 31.1725C32.1916 31.1419 32.3653 31.1284 32.5379 31.1107C32.9427 31.0693 33.3502 31.046 33.7521 30.9857C34.2677 30.9083 34.7804 30.8238 35.3037 30.8039C35.6695 30.7899 36.0394 30.7558 36.3962 30.6788C36.6327 30.6277 36.8642 30.6528 37.0958 30.6258C37.5899 30.5683 38.0855 30.5337 38.5807 30.4928C38.7924 30.4753 39.0068 30.4661 39.2193 30.4463C39.3821 30.4311 39.544 30.4065 39.7064 30.3872C39.859 30.3691 40.0217 30.432 40.1642 30.328C40.1773 30.3184 40.2034 30.3275 40.2235 30.3266C40.6568 30.3067 41.0901 30.2851 41.5235 30.2668C42.0371 30.2452 42.5561 30.2645 43.0627 30.1941C43.4694 30.1376 43.8746 30.1954 44.2732 30.1396C44.7974 30.0662 45.3248 30.1325 45.8443 30.0781C46.8603 29.9719 47.8782 30.086 48.8909 30.0149C49.456 29.9752 50.0189 29.9682 50.5831 29.9685C50.8558 29.9687 51.1283 30.0128 51.4014 30.0231C51.6376 30.032 51.7144 29.9536 51.7359 29.7292C51.7746 29.3238 51.8073 28.9176 51.8583 28.5137C51.9074 28.1255 51.9819 27.7405 52.0345 27.3526C52.0659 27.1214 52.0568 26.8835 52.1013 26.6555C52.1783 26.2604 52.1613 25.8536 52.2731 25.4626C52.3201 25.2979 52.3191 25.1191 52.3375 24.9464C52.3786 24.5614 52.4133 24.1756 52.4595 23.7912C52.5145 23.3334 52.5738 22.876 52.6405 22.4198C52.6929 22.0619 52.7675 21.7072 52.8161 21.3489C52.8394 21.1772 52.8383 21.005 52.871 20.8303C52.9403 20.4606 52.9559 20.0812 53.0014 19.7068C53.0571 19.2491 53.1021 18.7888 53.188 18.3365C53.2401 18.0619 53.2587 17.7854 53.302 17.5113C53.3601 17.1442 53.4263 16.7783 53.4805 16.4106C53.5101 16.2095 53.5149 16.0046 53.544 15.8033C53.5987 15.4257 53.6651 15.0498 53.7221 14.6725C53.748 14.5009 53.7646 14.3278 53.7831 14.1552C53.8241 13.7701 53.8465 13.3821 53.9083 13.0005C53.979 12.5644 54.0415 12.1286 54.0912 11.6893C54.1417 11.2415 54.2334 10.7991 54.2713 10.3477C54.3014 9.98841 54.3867 9.63388 54.4453 9.27689C54.4686 9.13507 54.4894 8.99266 54.5055 8.84986C54.5476 8.47499 54.5772 8.09846 54.6293 7.72505C54.6766 7.3866 54.7547 7.05253 54.8046 6.71436C54.8386 6.48367 54.8401 6.24833 54.8695 6.01677C54.9007 5.77112 54.9338 5.52409 54.9917 5.28389C55.0555 5.01972 55.0812 5.0126 55.3474 5.01208C55.6284 5.01152 55.9142 4.98008 56.1892 5.02093C56.4636 5.0617 56.7438 5.04024 57.0161 5.12556C57.197 5.18226 57.3987 5.17333 57.5912 5.19264C57.9961 5.23326 58.4018 5.26702 58.8058 5.31496C59.2535 5.36807 59.7016 5.42253 60.1456 5.49911C60.3552 5.53526 60.5982 5.57086 60.6584 5.83828C60.6923 5.98832 60.7401 6.15915 60.6999 6.29674C60.6258 6.55064 60.6674 6.81562 60.588 7.06287C60.5017 7.33188 60.5632 7.6167 60.4767 7.88973C60.4166 8.07962 60.4274 8.29237 60.4092 8.49515C60.3874 8.73779 60.377 8.98175 60.3467 9.22326C60.2931 9.65112 60.2234 10.077 60.1697 10.5048C60.1394 10.7463 60.1348 10.991 60.1057 11.2327C60.076 11.479 60.0303 11.7233 59.9925 11.9686C59.988 11.9976 59.9892 12.0275 59.9871 12.0569C59.9671 12.3399 59.9584 12.6242 59.9242 12.9055C59.8746 13.3137 59.7999 13.7189 59.7486 14.127C59.7158 14.3882 59.7258 14.6559 59.6806 14.9144C59.6327 15.1886 59.6539 15.469 59.5716 15.7411C59.5193 15.9138 59.5218 16.104 59.5062 16.2869C59.4828 16.5595 59.4916 16.8379 59.4389 17.1044C59.3588 17.5095 59.3792 17.9257 59.2714 18.3283C59.2225 18.5111 59.2572 18.7104 59.2137 18.9063C59.1551 19.1706 59.1728 19.451 59.1413 19.7226C59.1139 19.9586 59.0559 20.1909 59.0259 20.4266C59.0015 20.6185 59.0223 20.8096 58.9735 21.0066C58.9111 21.2589 58.9449 21.5339 58.8967 21.7915C58.851 22.0358 58.8711 22.286 58.79 22.5287C58.7366 22.6887 58.786 22.869 58.7324 23.0467C58.6692 23.2564 58.6796 23.4889 58.6627 23.7118C58.6386 24.0288 58.615 24.3444 58.5475 24.6575C58.5114 24.8248 58.5267 25.0006 58.4905 25.1755C58.4355 25.4412 58.45 25.7205 58.4185 25.9921C58.3911 26.2281 58.3367 26.4608 58.302 26.696C58.2753 26.8776 58.2581 27.0606 58.241 27.2435C58.1993 27.6887 58.1699 28.1354 58.1171 28.5793C58.0709 28.9678 57.9925 29.3524 57.9429 29.7407C57.9243 29.8869 57.9469 30.0384 57.9507 30.1875C58.0786 30.1937 58.2065 30.204 58.3344 30.2054C58.5954 30.2082 58.8604 30.1772 59.1164 30.2127C59.5501 30.2728 59.9887 30.2219 60.4156 30.2797C60.7318 30.3225 61.0535 30.2647 61.3534 30.3376C61.7289 30.429 62.1162 30.3083 62.4807 30.4469C62.4894 30.4502 62.5006 30.4469 62.5106 30.4473C62.9339 30.4674 63.358 30.4779 63.7803 30.5108C64.0861 30.5345 64.3891 30.5924 64.6944 30.6264C64.8768 30.6468 65.0573 30.6326 65.2439 30.6781C65.4965 30.7396 65.7697 30.7111 66.0287 30.7537C66.2731 30.7939 66.5225 30.7842 66.7649 30.8618C66.9262 30.9135 67.1053 30.8784 67.2821 30.9183C67.6283 30.9965 67.9938 30.9865 68.3427 31.056C68.7607 31.1394 69.1838 31.1949 69.6022 31.275C70.0855 31.3674 70.5666 31.4684 71.0384 31.5993C71.5936 31.7534 72.1524 31.9169 72.6251 32.2743C72.988 32.5487 73.0775 32.8247 72.9364 33.2705C72.8184 33.6432 72.6905 34.0128 72.5777 34.3871C72.5154 34.5941 72.394 34.7524 72.2081 34.8442C71.7837 35.0537 71.3513 35.2471 70.9221 35.447C70.5834 35.4179 70.577 35.6761 70.5271 35.9007C70.4085 36.4337 70.2771 36.9641 70.1695 37.4994C70.0925 37.8829 70.0423 38.2719 69.9865 38.6595C69.9223 39.106 69.8722 39.5547 69.8029 40.0004C69.7314 40.4607 69.6361 40.9172 69.5662 41.3777C69.4956 41.8434 69.4556 42.3138 69.3801 42.7785C69.2934 43.3117 69.176 43.8398 69.0846 44.3722C69.0309 44.6847 69.0027 45.0016 68.9612 45.3162C68.9437 45.4489 68.9397 45.5876 68.8943 45.7105C68.8687 45.7798 68.7681 45.8193 68.7069 45.878C68.5986 45.9817 68.4487 46.0321 68.5234 46.2669C68.5792 46.442 68.601 46.6752 68.4845 46.872C68.4625 46.9092 68.4799 46.9701 68.4799 47.0201C68.4797 47.1607 68.4842 47.3015 68.479 47.442C68.461 47.9259 68.4619 48.412 68.4131 48.8929C68.3678 49.3382 68.3256 49.7828 68.2905 50.2291C68.2562 50.6645 68.2042 51.0987 68.1704 51.5352C68.1375 51.9606 68.0829 52.3845 68.0499 52.8112C68.0169 53.2365 67.9508 53.659 67.9328 54.0875C67.9153 54.5038 67.8563 54.9182 67.8176 55.3336C67.7761 55.7789 67.7511 56.2262 67.6927 56.6692C67.6368 57.0938 67.6029 57.5187 67.5679 57.945C67.5321 58.3804 67.4798 58.8144 67.4479 59.2512C67.4176 59.6666 67.3618 60.0806 67.3263 60.4968C67.2908 60.9121 67.2281 61.3246 67.2103 61.7432C67.1907 62.1995 67.1581 62.6583 67.0822 63.1077C67.0543 63.2726 67.0526 63.4344 67.0336 63.597C66.9956 63.9221 66.9537 64.2468 66.9143 64.5717C66.9107 64.6014 66.9137 64.6319 66.9138 64.6621C66.9157 65.0615 66.8628 65.4546 66.7976 65.8483C66.7547 66.1074 66.7443 66.3731 66.7352 66.6363C66.7221 67.0149 66.691 67.3904 66.6137 67.7617C66.6057 67.8003 66.6139 67.8419 66.6124 67.882C66.5987 68.2699 66.5773 68.657 66.4927 69.0376C66.4885 69.0567 66.4932 69.0777 66.492 69.0977C66.4722 69.441 66.4573 69.7846 66.4306 70.1273C66.3959 70.5732 66.3667 71.0203 66.307 71.463C66.2525 71.8676 66.2036 72.2703 66.1862 72.6791C66.1675 73.1154 66.1239 73.5518 66.0668 73.9849C66.0108 74.4094 65.9771 74.8344 65.9423 75.2607C65.9044 75.7262 65.8581 76.1912 65.8195 76.657C65.7885 77.0318 65.7225 77.4041 65.7048 77.7829C65.6829 78.2492 65.6447 78.7162 65.5839 79.179C65.5308 79.5836 65.4809 79.9863 65.4635 80.3951C65.444 80.8514 65.4022 81.308 65.3435 81.761C65.2923 82.1557 65.2308 82.5476 65.2244 82.9471C65.2211 83.15 65.1862 83.3523 65.1674 83.555C65.1529 83.7109 65.0769 83.8484 64.9436 83.9028C64.754 83.9802 64.7411 84.1116 64.7435 84.2791C64.7494 84.6908 64.7526 85.1029 64.7438 85.5145C64.73 86.1592 64.725 86.8051 64.6789 87.4478C64.6427 87.9535 64.5762 88.4566 64.5593 88.9651C64.5487 89.2809 64.4918 89.5961 64.4402 89.909C64.4226 90.0159 64.3823 90.1404 64.3086 90.2114C64.2065 90.3098 64.1977 90.4118 64.2029 90.5331C64.2241 91.0169 64.2406 91.5009 64.2657 91.9845C64.272 92.1075 64.3103 92.2285 64.3223 92.3516C64.3401 92.5343 64.2516 92.685 64.1041 92.7652C63.7451 92.9604 63.3829 93.1566 63.0037 93.3061C62.5115 93.5003 62.0059 93.6646 61.4978 93.8136C61.1015 93.9299 60.6927 94.0042 60.2891 94.0956C59.9402 94.1747 59.5924 94.2601 59.2411 94.327C58.95 94.3824 58.6538 94.4103 58.3613 94.4588C58.0526 94.51 57.7461 94.5743 57.4376 94.6266C57.2579 94.657 57.0764 94.6798 56.8949 94.6975C56.6427 94.7221 56.3848 94.715 56.1385 94.7658C55.9044 94.814 55.6575 94.7721 55.4331 94.8773C55.4002 94.8927 55.3538 94.878 55.3137 94.8797C54.8402 94.8994 54.3667 94.9193 53.8933 94.9409C53.8763 94.9417 53.8601 94.9598 53.8436 94.9849C51.364 95 48.8845 95 46.3899 95ZM32.4614 52.5375C32.4815 52.7301 32.5035 52.9225 32.5211 53.1154C32.5433 53.358 32.5354 53.6068 32.5877 53.8424C32.6797 54.2565 32.6965 54.6786 32.7602 55.0952C32.7939 55.3158 32.7766 55.5465 32.8284 55.7616C32.9257 56.1649 32.9148 56.5801 32.9979 56.985C33.0655 57.3143 33.0513 57.6618 33.132 57.9866C33.2375 58.4109 33.2282 58.8445 33.295 59.2713C33.3624 59.7014 33.3542 60.1429 33.4226 60.5764C33.4752 60.9093 33.5272 61.245 33.5402 61.581C33.5576 62.0296 33.6027 62.4735 33.6642 62.9173C33.6949 63.1386 33.6758 63.3705 33.7322 63.5836C33.8779 64.1348 33.8417 64.701 33.9066 65.2582C33.929 65.4505 33.9443 65.6436 33.9681 65.8358C33.9869 65.9874 34.0084 66.1391 34.038 66.2889C34.091 66.5574 34.1668 66.8223 34.2044 67.0926C34.2591 67.4858 34.3117 67.8819 34.3224 68.2779C34.3345 68.7246 34.4284 69.1542 34.5057 69.5896C34.601 70.1263 34.6666 70.6681 34.7517 71.2066C34.7887 71.4401 34.8397 71.6715 34.889 71.9028C34.9814 72.3362 35.0832 72.7677 35.1697 73.2023C35.2218 73.4644 35.2175 73.7425 35.3002 73.993C35.4723 74.5139 35.5265 75.0509 35.596 75.5882C35.6201 75.7746 35.6721 75.9575 35.7152 76.141C35.7246 76.181 35.7503 76.2171 35.7685 76.255C35.7905 76.2208 35.8203 76.1894 35.8331 76.1521C35.9266 75.8793 36.0779 75.6615 36.3679 75.5704C36.5578 75.5107 36.7666 75.4715 36.9299 75.5855C37.126 75.7225 37.283 75.9122 37.3413 76.1634C37.4346 76.5658 37.5309 76.9644 37.5264 77.3846C37.5228 77.7218 37.4376 78.0371 37.2457 78.2919C37.0516 78.5495 36.7309 78.6936 36.4286 78.7686C36.2312 78.8175 36.2435 78.9008 36.2594 79.0183C36.2873 79.2243 36.3287 79.4293 36.3786 79.6313C36.4255 79.8211 36.4901 80.0065 36.5484 80.1934C36.5588 80.2268 36.5762 80.258 36.5904 80.2901C36.6188 80.2617 36.6619 80.2382 36.6733 80.2041C36.7687 79.9189 36.9984 79.762 37.2222 79.5899C37.3632 79.4815 37.4806 79.475 37.6174 79.5701C37.8746 79.749 38.1512 79.9059 38.3848 80.1117C38.8713 80.5404 39.0644 81.109 39.0895 81.7463C39.0955 81.8989 39.0906 82.0479 39.1322 82.2075C39.194 82.4444 39.1647 82.7082 39.0271 82.9375C38.9231 83.1106 38.7888 83.2138 38.5764 83.2546C38.3122 83.3053 38.0507 83.3025 37.7867 83.3073C37.6499 83.3099 37.5966 83.3786 37.6431 83.51C37.705 83.6848 37.7777 83.8559 37.8497 84.0269C37.9181 84.1895 38.0281 84.3443 38.0533 84.5126C38.0815 84.7016 38.2217 84.753 38.3392 84.8059C38.499 84.8779 38.6846 84.8912 38.8578 84.935C39.1664 85.0131 39.4723 85.1025 39.7826 85.173C40.0141 85.2256 40.2503 85.2581 40.4851 85.2949C40.5802 85.3098 40.6772 85.3124 40.7733 85.3207C40.7224 85.2313 40.6725 85.1413 40.6202 85.0527C40.387 84.6577 40.2318 84.2481 40.2847 83.7718C40.3071 83.5697 40.3649 83.3962 40.4979 83.2571C40.6393 83.1091 40.7923 82.9655 40.9622 82.8532C41.3187 82.6175 41.7281 82.5723 42.1446 82.5862C42.2372 82.5893 42.3281 82.6361 42.421 82.6417C42.7034 82.6586 42.9521 82.7678 43.1201 82.9829C43.3677 83.2999 43.6111 83.6254 43.7024 84.0357C43.8155 84.5438 43.8568 85.0443 43.636 85.5366C43.5696 85.6847 43.6127 85.7624 43.7639 85.7777C44.1788 85.8193 44.5933 85.8663 45.0091 85.8962C45.3317 85.9194 45.654 85.9124 45.9789 85.9478C46.5685 86.0121 47.1665 85.9855 47.7601 86.0027C49.3165 86.0477 50.8757 86.0428 52.4325 85.9591C52.4425 85.9585 52.4533 85.9615 52.4625 85.9586C52.6467 85.9012 52.8251 85.8881 52.9002 85.6266C52.9749 85.3666 53.118 85.0993 53.2812 84.887C53.5565 84.5287 53.9094 84.2325 54.3384 84.0431C54.6671 83.8981 54.9752 83.9531 55.1939 84.2195C55.3868 84.4545 55.6349 84.5935 55.8758 84.7538C56.1659 84.947 56.4634 85.1384 56.6096 85.4724C56.6628 85.5939 56.7407 85.6113 56.841 85.5955C57.0562 85.5614 57.2689 85.4896 57.4842 85.4825C57.9391 85.4674 58.3799 85.3717 58.8245 85.2953C59.2736 85.2181 59.7234 85.1435 60.1698 85.0528C60.7237 84.9403 61.2782 84.8268 61.8252 84.6858C62.1841 84.5933 62.526 84.4359 62.8833 84.3353C63.4143 84.1858 63.9098 83.9524 64.4074 83.7242C64.5287 83.6686 64.6038 83.5385 64.6233 83.3988C64.6501 83.2071 64.6661 83.0139 64.685 82.8213C64.7258 82.406 64.7831 81.9914 64.8008 81.5752C64.8191 81.1466 64.8816 80.724 64.9172 80.2986C64.9545 79.8527 64.9844 79.407 65.0426 78.9626C65.0833 78.6522 65.0869 78.3369 65.1066 78.0237C65.1085 77.9937 65.0976 77.9596 65.1083 77.9339C65.2348 77.6295 65.1484 77.3021 65.2164 76.9864C65.2858 76.6639 65.2367 76.3165 65.2984 75.9912C65.3394 75.7751 65.3012 75.5543 65.3592 75.3545C65.4051 75.1964 65.3917 75.0469 65.4087 74.894C65.4257 74.7413 65.4635 74.5893 65.4653 74.4367C65.47 74.0272 65.5467 73.6255 65.5798 73.2203C65.6147 72.794 65.672 72.37 65.7021 71.9445C65.7323 71.5175 65.7876 71.0937 65.8213 70.6683C65.8559 70.232 65.9061 69.7976 65.9419 69.3622C65.977 68.9359 66.025 68.5114 66.0611 68.086C66.0965 67.6698 66.1474 67.2555 66.1822 66.8402C66.2188 66.4042 66.2671 65.9695 66.303 65.5341C66.3382 65.1078 66.3885 64.6835 66.4235 64.2581C66.4594 63.822 66.5077 63.3873 66.5439 62.9519C66.5794 62.5257 66.6274 62.1012 66.6638 61.6759C66.7019 61.2301 66.7288 60.7841 66.7898 60.3399C66.8465 59.9268 66.8914 59.5105 66.9088 59.0943C66.9268 58.6657 66.9937 58.2432 67.0259 57.8178C67.0598 57.3713 67.0903 56.926 67.1505 56.4816C67.1925 56.1715 67.195 55.8559 67.2147 55.5428C67.2166 55.5128 67.2052 55.4782 67.2164 55.4531C67.3476 55.1596 67.2283 54.8386 67.3267 54.5352C67.3876 54.3472 67.3617 54.1313 67.3814 53.9288C67.4228 53.5037 67.4761 53.0792 67.5101 52.6536C67.5442 52.2273 67.5732 51.8018 67.633 51.3776C67.6898 50.9747 67.7356 50.5684 67.752 50.1622C67.7702 49.7137 67.8281 49.2708 67.87 48.8254C67.9007 48.4982 67.9357 48.1747 67.9926 47.8505C68.0739 47.387 68.1191 46.917 68.1782 46.4496C68.1945 46.3208 68.1418 46.2653 68.0358 46.3008C67.9835 46.3183 67.9384 46.3559 67.8875 46.3788C67.676 46.4739 67.4688 46.5823 67.2505 46.6581C66.3791 46.9607 65.4898 47.1908 64.5753 47.3285C64.081 47.4028 63.5956 47.5348 63.1028 47.6221C62.6786 47.6972 62.2502 47.749 61.8229 47.8051C61.3364 47.8691 60.8504 47.9464 60.3616 47.9805C59.9743 48.0075 59.5912 48.0535 59.2069 48.1033C58.764 48.1608 58.3176 48.1936 57.8719 48.2258C57.5891 48.2462 57.3072 48.2262 57.0219 48.2787C56.7462 48.3294 56.4589 48.293 56.1738 48.3391C55.8369 48.3935 55.4905 48.3436 55.1446 48.3986C54.7483 48.4615 54.3403 48.4234 53.9354 48.4549C53.2044 48.5118 52.4669 48.5015 51.7328 48.5166C49.8765 48.5548 48.0189 48.5352 46.1619 48.5253C45.6685 48.5227 45.1767 48.5396 44.6795 48.483C44.0719 48.4139 43.4519 48.4965 42.8384 48.4128C42.5187 48.3691 42.1948 48.4195 41.868 48.3602C41.5539 48.3032 41.2247 48.3409 40.9002 48.2964C40.5017 48.2418 40.0949 48.248 39.6916 48.228C39.6716 48.227 39.6459 48.236 39.6323 48.2267C39.4892 48.1283 39.3276 48.1824 39.1746 48.1668C39.0119 48.1503 38.8503 48.1231 38.6874 48.1084C38.4251 48.0846 38.1552 48.0965 37.9017 48.037C37.7257 47.9957 37.5544 48.0075 37.3826 47.9843C36.9949 47.932 36.6095 47.8629 36.2223 47.807C35.9084 47.7617 35.5907 47.7392 35.2792 47.6818C34.9282 47.6172 34.5841 47.5153 34.2336 47.4468C33.8275 47.3676 33.424 47.2865 33.0328 47.1456C32.6653 47.0133 32.2913 46.8989 31.9172 46.786C31.8795 46.7746 31.8343 46.6655 31.7839 46.7686C31.7597 46.8182 31.7266 46.8866 31.743 46.9289C31.8429 47.1865 31.8011 47.4618 31.8546 47.7253C31.8969 47.9335 31.886 48.152 31.9221 48.3619C31.9928 48.7723 32.1014 49.177 32.1547 49.5892C32.2184 50.0818 32.2395 50.5799 32.2812 51.0754C32.2983 51.2783 32.2999 51.4856 32.3461 51.6821C32.4079 51.9452 32.4612 52.2065 32.4614 52.5375ZM68.9014 42.8937C68.9617 42.527 69.0275 42.1611 69.08 41.7933C69.1116 41.5722 69.1103 41.3463 69.1448 41.1259C69.2169 40.6657 69.3098 40.2088 69.3813 39.7485C69.4506 39.3028 69.4936 38.8529 69.567 38.4079C69.633 38.0069 69.7215 37.6095 69.8058 37.2117C69.8761 36.8802 69.957 36.5509 70.0283 36.2196C70.0604 36.0708 70.0847 35.92 70.1015 35.7689C70.104 35.7464 70.0393 35.6902 70.0173 35.6957C69.9189 35.7204 69.827 35.772 69.7285 35.7955C69.2711 35.9047 68.8125 36.0088 68.3538 36.1126C68.0873 36.1729 67.8206 36.233 67.5526 36.2863C67.2179 36.3528 66.8826 36.4169 66.546 36.4732C66.2627 36.5205 65.9758 36.5469 65.6931 36.5971C65.2834 36.6699 64.8776 36.7656 64.4672 36.8336C64.0324 36.9057 63.5956 36.9793 63.1568 37.0104C62.7597 37.0385 62.366 37.0781 61.9721 37.1342C61.5794 37.1901 61.1835 37.2366 60.7876 37.2531C60.3593 37.2711 59.9371 37.3418 59.5122 37.37C58.9959 37.4042 58.4808 37.4385 57.9663 37.4956C57.6553 37.53 57.3419 37.5104 57.0266 37.5471C56.518 37.6061 56.0011 37.5461 55.4861 37.6119C54.9975 37.6744 54.5015 37.6164 54.005 37.666C53.3763 37.7287 52.738 37.7082 52.1038 37.7294C50.9508 37.768 49.7953 37.7537 48.6413 37.7366C47.4953 37.7196 46.3481 37.8045 45.2028 37.684C44.712 37.6323 44.2178 37.703 43.7208 37.6315C43.2148 37.5586 42.6951 37.5831 42.1817 37.5582C41.8786 37.5435 41.5781 37.5613 41.271 37.5119C40.8356 37.4419 40.3862 37.4603 39.9429 37.4386C39.5697 37.4204 39.1967 37.3988 38.8236 37.3788C38.8136 37.3782 38.8029 37.381 38.7936 37.3784C38.4156 37.2711 38.0219 37.321 37.6382 37.2623C37.3687 37.221 37.092 37.2289 36.821 37.1953C36.4131 37.1449 36.009 37.057 35.6001 37.0234C35.2628 36.9958 34.9296 36.9564 34.596 36.8998C34.1615 36.8261 33.7238 36.7697 33.2861 36.7173C32.7192 36.6493 32.1629 36.5278 31.6028 36.422C30.9634 36.3011 30.3395 36.1232 29.7071 35.9775C29.5494 35.9412 29.4879 35.9762 29.5131 36.1301C29.5559 36.3908 29.6214 36.6478 29.6705 36.9076C29.7217 37.1787 29.7686 37.4508 29.8102 37.7235C29.855 38.0176 29.882 38.3145 29.934 38.6072C30.0051 39.0075 30.0985 39.4037 30.1705 39.8038C30.2215 40.0866 30.2251 40.3804 30.2996 40.6558C30.4118 41.0703 30.4398 41.4973 30.5289 41.9148C30.5949 42.2241 30.6092 42.5441 30.6558 42.858C30.7103 43.2256 30.778 43.5913 30.8339 43.9587C30.8614 44.1401 30.8695 44.3244 30.8969 44.5058C30.9309 44.7312 30.9997 44.9538 31.01 45.1796C31.0239 45.4843 31.1497 45.7176 31.3761 45.9026C31.4775 45.9855 31.5879 46.0756 31.7094 46.1125C32.1814 46.256 32.6192 46.4826 33.0959 46.6247C33.8618 46.8532 34.6411 47.0133 35.4155 47.197C35.8962 47.311 36.3906 47.369 36.8803 47.4429C37.3261 47.5101 37.7733 47.5683 38.2207 47.6241C38.5848 47.6695 38.9493 47.7253 39.3151 47.7406C39.7434 47.7585 40.1658 47.814 40.5905 47.8616C41.1238 47.9213 41.6606 47.9503 42.1964 47.9855C42.5292 48.0074 42.861 47.9848 43.1968 48.0363C43.5833 48.0956 43.9807 48.0402 44.3761 48.0981C44.8034 48.1607 45.2403 48.1143 45.676 48.1532C46.3358 48.2121 47.0044 48.2067 47.6675 48.2142C48.8629 48.2278 50.0607 48.2921 51.2563 48.1718C51.7772 48.1193 52.3016 48.188 52.8285 48.1192C53.3855 48.0464 53.9546 48.0668 54.5184 48.0472C55.1124 48.0266 55.7063 48.0069 56.3002 47.9869C56.3203 47.9862 56.3428 47.9928 56.3601 47.9859C56.6944 47.8533 57.0512 47.9467 57.3969 47.8775C57.7498 47.8068 58.1208 47.826 58.4839 47.8061C58.5039 47.805 58.5295 47.8141 58.5432 47.8048C58.7061 47.6941 58.8888 47.7656 59.0612 47.7459C59.2435 47.7251 59.4257 47.7023 59.6084 47.6862C59.8708 47.6631 60.1418 47.6774 60.3937 47.6142C60.5708 47.5698 60.7498 47.6087 60.9116 47.5587C61.2824 47.4443 61.6693 47.4636 62.0439 47.3877C62.2423 47.3474 62.4501 47.3553 62.6502 47.3215C63.08 47.2488 63.5075 47.1631 63.936 47.0827C64.2806 47.018 64.6291 46.969 64.9688 46.8847C65.4581 46.7632 65.9386 46.6061 66.4274 46.4826C66.9983 46.3384 67.5423 46.131 68.0827 45.8968C68.4917 45.7195 68.6128 45.4078 68.6588 45.0236C68.6878 44.7818 68.6982 44.5379 68.7216 44.2955C68.7372 44.1326 68.7443 43.9663 68.7846 43.809C68.8566 43.5273 68.8907 43.2428 68.9014 42.8937ZM54.5663 12.3352C54.5463 12.5277 54.5637 12.735 54.4957 12.9088C54.4261 13.0864 54.4691 13.2566 54.4398 13.4275C54.3784 13.7846 54.3182 14.142 54.267 14.5006C54.2369 14.7118 54.2345 14.9271 54.2031 15.138C54.1286 15.6379 54.0369 16.1353 53.9665 16.6357C53.9139 17.0091 53.8845 17.3856 53.8432 17.7605C53.8253 17.9232 53.8077 18.0861 53.7825 18.2477C53.725 18.6149 53.656 18.9804 53.6046 19.3484C53.5553 19.7021 53.5227 20.0581 53.4821 20.413C53.4612 20.595 53.4455 20.7779 53.4157 20.9584C53.385 21.1446 53.3302 21.327 53.3041 21.5136C53.273 21.7348 53.2636 21.9589 53.2405 22.1812C53.2245 22.334 53.2227 22.493 53.1767 22.6371C53.0681 22.9773 53.0751 23.3339 53.0048 23.6793C52.9605 23.8971 52.9687 24.125 52.9382 24.3462C52.8847 24.734 52.8171 25.1198 52.7605 25.5071C52.734 25.6887 52.7277 25.8734 52.6973 26.0542C52.6438 26.3718 52.5684 26.686 52.5212 27.0045C52.469 27.3577 52.4392 27.7141 52.3975 28.0689C52.3785 28.2309 52.3592 28.3932 52.3314 28.5539C52.2764 28.8717 52.2074 29.1873 52.1593 29.5062C52.1091 29.8395 52.0979 30.1798 52.0318 30.5095C51.9244 31.0456 51.8401 31.5835 51.7952 32.1281C51.7784 32.331 51.7885 32.5439 51.7277 32.7334C51.637 33.0163 51.6972 33.3078 51.6223 33.5919C51.5328 33.931 51.5023 34.2854 51.4368 34.6314C51.404 34.8048 51.4309 34.8519 51.6262 34.8458C52.1399 34.8299 52.6535 34.8096 53.167 34.7863C53.8008 34.7575 54.4335 34.8016 55.0706 34.7421C55.6931 34.6839 56.3243 34.7152 56.9469 34.6099C57.1534 34.575 57.2076 34.5467 57.2161 34.3415C57.2267 34.0878 57.2224 33.837 57.2668 33.5813C57.3269 33.235 57.317 32.8765 57.3368 32.5233C57.3384 32.4932 57.3299 32.4609 57.3381 32.4332C57.4383 32.095 57.4083 31.7421 57.4542 31.3977C57.4903 31.1269 57.4784 30.8491 57.5223 30.5801C57.5834 30.2063 57.6322 29.8329 57.638 29.4542C57.6388 29.404 57.6275 29.351 57.6398 29.304C57.7625 28.8343 57.7265 28.3459 57.8129 27.8708C57.8652 27.5836 57.8302 27.28 57.8885 26.9948C57.9326 26.7792 57.8995 26.5614 57.946 26.3565C58.0466 25.9128 58.026 25.4575 58.1125 25.0122C58.1718 24.7067 58.158 24.3873 58.181 24.0745C58.1973 23.8515 58.2134 23.6281 58.242 23.4066C58.2971 22.9789 58.3698 22.5534 58.4182 22.125C58.4534 21.8136 58.4615 21.4992 58.4811 21.1861C58.483 21.1561 58.4747 21.124 58.4824 21.096C58.5969 20.6765 58.5913 20.2401 58.6499 19.813C58.7051 19.4115 58.7163 19.0023 58.7797 18.5987C58.8336 18.2559 58.8646 17.9094 58.9025 17.5643C58.9448 17.1794 58.9988 16.7949 59.0191 16.4087C59.0389 16.0304 59.0912 15.6579 59.1374 15.283C59.1866 14.8831 59.195 14.477 59.2016 14.0733C59.2115 13.4709 59.2042 12.8681 59.2042 12.2655C59.2042 12.1952 59.2252 12.1163 59.2006 12.056C59.0723 11.7399 59.191 11.4011 59.0925 11.0773C59.0261 10.8587 59.0611 10.6114 59.0199 10.3825C58.9312 9.88965 58.8435 9.39498 58.7176 8.91092C58.5132 8.12529 58.2882 7.34053 57.81 6.66762C57.5576 6.31239 57.2896 5.96575 56.8687 5.77327C56.4573 5.58512 56.0434 5.48897 55.6002 5.61872C55.5484 5.63387 55.4853 5.69864 55.4745 5.75026C55.4238 5.99254 55.3832 6.23745 55.3512 6.483C55.3223 6.70454 55.3349 6.93461 55.2811 7.14879C55.2371 7.32382 55.249 7.49617 55.2251 7.66768C55.1778 8.00611 55.086 8.33931 55.0538 8.67859C55.013 9.10941 54.9464 9.53416 54.8718 9.95983C54.7923 10.4136 54.7466 10.8733 54.687 11.3305C54.646 11.6452 54.6065 11.9601 54.5663 12.3352ZM55.4698 91.2329C55.6106 91.3537 55.7489 91.4774 55.8926 91.5945C56.1415 91.7973 56.3986 91.9687 56.7491 91.9289C57.2029 91.8772 57.6619 91.8642 58.1128 91.796C58.2835 91.7702 58.5062 91.7595 58.5567 91.4796C58.5764 91.3704 58.7596 91.284 58.8779 91.2008C59.0707 91.0649 59.293 91.0274 59.526 91.0196C59.7691 91.0114 60.0093 91.0229 60.2564 90.9745C60.5243 90.922 60.8336 90.904 61.062 91.1129C61.198 91.2371 61.339 91.2233 61.4729 91.1862C61.8402 91.0843 62.2002 90.9561 62.5643 90.8421C62.6962 90.8007 62.7998 90.7413 62.8523 90.5993C62.9326 90.3819 63.0367 90.1733 63.1174 89.956C63.2177 89.6859 63.5362 89.5078 63.8116 89.5719C63.8819 89.5883 63.9727 89.6075 63.9667 89.4684C63.9632 89.3874 64.0154 89.3052 64.0205 89.2222C64.0454 88.819 64.0629 88.4154 64.0828 88.0119C64.0838 87.9918 64.0797 87.9711 64.0834 87.9517C64.1621 87.5401 64.2011 87.1251 64.2065 86.7058C64.2081 86.5866 64.1767 86.5457 64.0585 86.5603C63.9231 86.577 63.8259 86.501 63.7257 86.4187C63.4194 86.1672 63.4591 85.8252 63.4966 85.4989C63.5209 85.2875 63.6138 85.079 63.7694 84.9229C63.8766 84.8154 63.8894 84.6485 63.8522 84.5767C63.799 84.4742 63.6706 84.5867 63.5763 84.6249C63.5418 84.6389 63.4934 84.6196 63.4599 84.6346C62.6095 85.0162 61.7096 85.2288 60.8023 85.4164C60.5749 85.4634 60.5453 85.5044 60.6272 85.723C60.7217 85.9757 60.7673 86.2433 60.6811 86.4908C60.486 87.0513 60.3148 87.6232 60.0082 88.1402C59.6711 88.7088 58.9979 88.8281 58.479 88.3968C58.2233 88.1842 58.0971 87.9224 58.0469 87.5784C57.971 87.0576 57.9647 86.5689 58.2387 86.1032C58.2624 86.063 58.2832 85.9766 58.2679 85.9661C58.217 85.9311 58.1404 85.891 58.089 85.9059C57.738 86.0074 57.3742 86.0395 57.0162 86.067C56.7962 86.0839 56.6738 86.1813 56.6272 86.3467C56.5134 86.7513 56.2778 87.0691 55.979 87.343C55.692 87.6061 55.3634 87.795 54.9515 87.767C54.6687 87.7478 54.3819 87.7502 54.1042 87.7012C53.7312 87.6355 53.3871 87.4818 53.1562 87.1635C53.0252 86.983 52.9174 86.7821 52.8241 86.5789C52.7565 86.4321 52.6662 86.3668 52.5097 86.3806C52.2672 86.4019 52.0243 86.4408 51.7819 86.4379C50.3248 86.4208 48.8667 86.4916 47.4102 86.3844C46.8479 86.343 46.2828 86.3407 45.719 86.3207C45.6989 86.32 45.6775 86.3252 45.6589 86.32C45.2808 86.2132 44.8874 86.2605 44.5035 86.2045C44.2139 86.1622 43.9036 86.2089 43.63 86.1256C43.3716 86.047 43.1899 86.1347 42.9955 86.2417C42.8791 86.3058 42.764 86.3302 42.6363 86.3207C42.3636 86.3005 42.0871 86.3016 41.8191 86.2543C41.5602 86.2086 41.3022 86.1341 41.1158 85.9154C41.0634 85.854 40.9806 85.8008 40.9026 85.7822C40.6087 85.712 40.3113 85.6562 40.0147 85.5977C39.569 85.5098 39.1229 85.4237 38.6767 85.3384C38.6162 85.3269 38.5539 85.3247 38.4925 85.3182C38.5085 85.3998 38.5101 85.4879 38.5437 85.5614C38.6008 85.6865 38.7267 85.6687 38.8322 85.6554C39.1222 85.6187 39.3488 85.7176 39.5267 85.9459C39.6222 86.0684 39.7357 86.1781 39.8221 86.3063C40.1286 86.761 40.2313 87.2358 39.9301 87.7384C39.8399 87.8889 39.8815 88.0177 39.9795 88.1507C40.3729 88.6848 40.7906 89.1974 41.2555 89.6721C41.3632 89.782 41.4678 89.8324 41.6192 89.8184C41.928 89.7897 42.191 89.9302 42.4446 90.0763C42.7986 90.2802 43.0337 90.5893 43.1838 90.9683C43.285 91.224 43.449 91.4278 43.6936 91.5671C43.8333 91.6467 43.954 91.7597 44.0936 91.8394C44.2988 91.9565 44.5179 92.0386 44.7602 92.0476C45.2138 92.0643 45.6672 92.0848 46.1204 92.1092C46.1832 92.1126 46.2435 92.16 46.3065 92.1645C46.4392 92.1739 46.59 92.1927 46.6723 92.0599C46.7425 91.9466 46.7845 91.8139 46.7016 91.6796C46.6772 91.6402 46.6549 91.5986 46.6379 91.5555C46.5491 91.3311 46.4563 91.1081 46.3764 90.8805C46.2793 90.6037 46.3544 90.3829 46.5898 90.2393C46.7871 90.119 47.0108 90.074 47.231 90.1221C47.8082 90.2482 48.343 90.4912 48.8513 90.7864C48.9701 90.8554 49.0596 90.986 49.1433 91.1022C49.3375 91.372 49.4003 91.6995 49.5016 92.0072C49.5833 92.2555 49.5914 92.2929 49.8551 92.2863C50.4792 92.2706 51.1031 92.245 51.7273 92.2286C51.9981 92.2215 52.2693 92.2284 52.5403 92.227C52.6907 92.2262 52.7948 92.1979 52.8411 92.009C52.877 91.8627 53.0069 91.7351 53.1083 91.6101C53.2812 91.397 53.5364 91.2921 53.7556 91.1397C53.8962 91.0418 54.0277 90.8697 54.1756 90.8549C54.6307 90.8095 55.1081 90.7661 55.4698 91.2329ZM37.31 31.5925C37.9139 31.5724 38.5179 31.5566 39.1216 31.5309C39.6351 31.5091 40.147 31.5495 40.6638 31.4841C41.2408 31.411 41.83 31.4101 42.4135 31.4171C43.1679 31.4261 43.9212 31.405 44.6779 31.4545C45.4065 31.5021 46.1441 31.4793 46.8809 31.4298C47.6092 31.3808 48.3468 31.3886 49.0839 31.4579C49.7802 31.5234 50.4876 31.4721 51.19 31.4718C51.4283 31.4717 51.429 31.4713 51.4941 31.2114C51.5114 31.1425 51.5568 31.0329 51.5307 31.0106C51.4723 30.9607 51.3778 30.936 51.2967 30.9325C50.9234 30.9163 50.5516 30.9273 50.1765 30.8785C49.6882 30.815 49.1922 30.8656 48.6961 30.8231C47.8659 30.7518 47.0283 30.8295 46.1924 30.7599C45.694 30.7185 45.1864 30.79 44.6829 30.8087C43.7281 30.8442 42.772 30.7502 41.8169 30.863C41.3377 30.9196 40.8517 30.8496 40.3659 30.9199C39.8991 30.9876 39.422 30.9218 38.9456 30.9763C38.4537 31.0325 37.956 31.059 37.4609 31.1013C37.0646 31.1351 36.6707 31.1668 36.2762 31.2242C35.8052 31.2927 35.3268 31.3099 34.8519 31.352C34.6692 31.3682 34.4757 31.3592 34.3072 31.4185C33.9768 31.5348 33.6298 31.5154 33.2945 31.5866C32.8932 31.6718 32.473 31.6766 32.0781 31.7813C31.3679 31.9695 30.6511 32.1482 29.9743 32.4415C29.744 32.5413 29.5367 32.6966 29.3254 32.8364C29.2547 32.8832 29.1573 32.9582 29.2151 33.0536C29.2595 33.1267 29.3528 33.1884 29.4371 33.2157C29.7036 33.3018 29.9737 33.3794 30.2466 33.4419C30.7429 33.5557 31.242 33.657 31.7403 33.762C32.0219 33.8214 32.3042 33.8658 32.5929 33.8903C32.9319 33.919 33.2641 34.0293 33.603 34.0568C33.9796 34.0872 34.3537 34.1225 34.7273 34.1807C35.0895 34.2371 35.4553 34.2829 35.8211 34.2998C36.2095 34.3177 36.5912 34.3921 36.9758 34.4164C37.4823 34.4484 37.9872 34.4805 38.4914 34.5415C38.7719 34.5754 39.0554 34.5447 39.3408 34.5965C39.6364 34.6502 39.9436 34.6142 40.2489 34.6557C40.6765 34.7139 41.1128 34.6622 41.5484 34.7163C42.0865 34.7831 42.6331 34.7287 43.1791 34.7738C44.1 34.8497 45.0277 34.7987 45.9536 34.8309C47.6175 34.8888 49.2848 34.8472 50.9507 34.8472C51.0209 34.8472 51.0938 34.8583 51.1603 34.8425C51.1926 34.8349 51.2415 34.7694 51.2345 34.7432C51.1564 34.4531 51.2085 34.1718 51.2462 33.881C51.3128 33.3689 51.3335 32.8507 51.3749 32.3352C51.3786 32.2885 51.3904 32.2419 51.4034 32.1966C51.4732 31.9532 51.434 31.9028 51.185 31.893C50.4911 31.8656 49.798 31.8974 49.1015 31.8482C48.0299 31.7725 46.9515 31.7855 45.8759 31.7766C45.3222 31.772 44.7691 31.7867 44.2142 31.8219C43.0711 31.8943 41.9237 31.7904 40.7769 31.8845C39.9461 31.9526 39.1082 31.931 38.2737 31.9553C37.8201 31.9686 37.367 31.9943 36.9137 32.0143C36.8936 32.0152 36.8706 32.0079 36.8539 32.0154C36.5609 32.1464 36.2434 32.0517 35.937 32.1223C35.607 32.1983 35.2531 32.1653 34.9115 32.1988C34.6955 32.2199 34.484 32.2845 34.2683 32.3133C34.0372 32.3442 33.8037 32.3579 33.5708 32.3734C33.5436 32.3752 33.4907 32.3419 33.49 32.3234C33.4885 32.2812 33.4991 32.2162 33.5276 32.1993C33.6148 32.1479 33.7098 32.1046 33.8071 32.0767C34.0265 32.0138 34.2605 31.9942 34.4749 31.9379C34.7713 31.86 35.0725 31.8339 35.3692 31.7818C35.6956 31.7245 36.0335 31.733 36.3664 31.7133C36.3964 31.7115 36.431 31.7228 36.4561 31.7115C36.71 31.5978 36.9937 31.6872 37.31 31.5925ZM40.3216 35.8719C39.8985 35.8518 39.4754 35.8314 39.0522 35.812C38.9921 35.8092 38.9234 35.8306 38.873 35.8083C38.6646 35.7161 38.4471 35.7668 38.2342 35.7505C38.0214 35.7342 37.8095 35.706 37.5966 35.6922C37.2238 35.668 36.8505 35.6509 36.4775 35.6309C36.4675 35.6303 36.4573 35.6319 36.4474 35.6306C36.1428 35.5906 35.8393 35.5389 35.5335 35.5132C35.1515 35.481 34.7674 35.4733 34.3846 35.4486C34.2017 35.4367 34.0188 35.416 33.8376 35.3884C33.4704 35.3325 33.1054 35.2622 32.7377 35.2109C32.3843 35.1615 32.0256 35.1454 31.6746 35.0842C31.1914 35.0001 30.7115 34.8948 30.2334 34.7849C29.7492 34.6737 29.2632 34.5643 28.7888 34.4191C28.4534 34.3164 28.1352 34.1569 27.8107 34.0196C27.6776 33.9633 27.548 33.8987 27.4168 33.8379C27.356 33.9901 27.4579 34.1133 27.4977 34.2445C27.5351 34.3674 27.5762 34.5228 27.669 34.5898C28.1556 34.9406 28.6856 35.2147 29.2627 35.3896C29.8602 35.5708 30.4529 35.7706 31.0569 35.9262C31.5599 36.0557 32.0756 36.1368 32.5869 36.232C32.8497 36.2809 33.1211 36.2921 33.3784 36.3595C33.7117 36.4469 34.0464 36.5076 34.3888 36.536C34.5516 36.5495 34.7144 36.5694 34.8756 36.5963C35.2126 36.6527 35.5464 36.7436 35.8854 36.7685C36.2626 36.7962 36.6356 36.8402 37.0099 36.8917C37.4521 36.9525 37.899 36.9802 38.3444 37.0158C38.5871 37.0351 38.831 37.0454 39.0731 37.0635C39.6085 37.1035 40.1437 37.1422 40.6785 37.1939C41.0199 37.2268 41.363 37.2005 41.7084 37.248C42.1661 37.3108 42.6326 37.2637 43.0984 37.305C43.8786 37.374 44.6657 37.3247 45.4515 37.3647C46.5427 37.4203 47.6389 37.3918 48.7326 37.375C49.8183 37.3584 50.9038 37.4258 51.9903 37.3263C52.7809 37.254 53.5795 37.3726 54.3742 37.2645C54.7825 37.209 55.2 37.2882 55.6145 37.2055C55.8797 37.1526 56.1571 37.1977 56.433 37.1485C56.7382 37.094 57.0563 37.1403 57.3711 37.0858C57.6776 37.0327 57.9954 37.057 58.3093 37.0311C58.8737 36.9844 59.4407 36.9663 60.005 36.9006C60.3655 36.8587 60.7306 36.8562 61.0936 36.8365C61.1236 36.8348 61.1544 36.8399 61.1839 36.8357C61.4584 36.7965 61.732 36.7488 62.0074 36.7177C62.269 36.6882 62.534 36.687 62.7948 36.6527C63.1727 36.6031 63.5473 36.5283 63.9249 36.4763C64.4109 36.4093 64.8986 36.3545 65.3854 36.2937C65.8623 36.234 66.3396 36.1766 66.8157 36.1111C66.974 36.0893 67.1298 36.0478 67.2859 36.0113C67.6517 35.9259 68.0175 35.8401 68.3824 35.7509C68.9198 35.6194 69.4598 35.4967 69.9924 35.3477C70.3767 35.2401 70.7533 35.1031 71.1285 34.9657C71.5062 34.8275 71.8782 34.6597 72.1879 34.4059C72.3807 34.2478 72.4968 34.0021 72.5151 33.7337C72.5209 33.6494 72.5165 33.6476 72.4285 33.69C72.1031 33.8471 71.7757 34.0106 71.4322 34.1172C70.8962 34.2834 70.3472 34.4086 69.802 34.5445C69.5279 34.6128 69.2506 34.6688 68.9738 34.7259C68.7604 34.77 68.5467 34.8155 68.3311 34.8453C67.9874 34.8927 67.6405 34.9177 67.2977 34.9702C66.8377 35.0407 66.3831 35.1631 65.9211 35.1996C65.4101 35.24 64.9067 35.3185 64.4005 35.3868C63.9975 35.4412 63.5911 35.4701 63.1862 35.5102C62.7813 35.5504 62.3772 35.6108 61.9714 35.6257C61.4635 35.6443 60.96 35.694 60.4554 35.7473C60.1542 35.7791 59.851 35.7498 59.5457 35.8021C59.2296 35.8562 58.9027 35.8105 58.5772 35.8619C58.2006 35.9214 57.8138 35.8686 57.4279 35.9211C56.9607 35.9846 56.4836 35.9242 56.0079 35.9824C55.4396 36.0518 54.8631 35.9795 54.2865 36.0406C53.5576 36.1179 52.8201 36.0523 52.0838 36.0978C51.0939 36.159 50.0973 36.126 49.104 36.1093C48.1187 36.0927 47.1338 36.1559 46.1472 36.0617C45.3772 35.9882 44.599 36.0947 43.8237 35.9999C43.285 35.9341 42.7387 36.0096 42.1921 35.9439C41.5944 35.8721 40.9857 35.892 40.3216 35.8719ZM68.6906 31.8336C68.4345 31.7733 68.1802 31.7031 67.9217 31.6554C67.6394 31.6034 67.3426 31.6072 67.0712 31.5241C66.6581 31.3976 66.2304 31.3792 65.8121 31.2979C65.5262 31.2423 65.2276 31.2532 64.9351 31.2301C64.7323 31.214 64.519 31.2247 64.3299 31.1633C63.9683 31.0459 63.5974 31.1367 63.2305 31.0634C62.819 30.9811 62.3885 31.0611 61.9616 31.0019C61.445 30.9304 60.9158 30.9524 60.3923 30.9281C60.1692 30.9178 59.9453 30.9023 59.7234 30.8842C59.165 30.8388 58.6003 30.8654 58.0383 30.8738C57.9647 30.8749 57.8405 30.9261 57.8281 30.9761C57.7842 31.1527 57.7762 31.3386 57.7619 31.5216C57.7602 31.5434 57.801 31.5865 57.826 31.5898C58.1601 31.634 58.4943 31.6805 58.8299 31.7106C59.0922 31.7341 59.354 31.7237 59.6194 31.7621C60.0467 31.8239 60.4846 31.8104 60.9177 31.8348C61.1507 31.8479 61.3914 31.8419 61.6137 31.9008C62.0164 32.0075 62.4304 32.0057 62.8371 32.0636C63.1795 32.1124 63.5263 32.1394 63.8703 32.1918C64.3552 32.2656 64.843 32.3215 65.3308 32.3743C65.7751 32.4225 66.2213 32.4524 66.6656 32.5002C66.7471 32.5089 66.8237 32.5643 66.9026 32.5982C66.8479 32.699 66.7521 32.6805 66.6644 32.6768C65.9603 32.6467 65.254 32.7358 64.5506 32.6216C64.2621 32.5747 63.9655 32.5788 63.6729 32.5563C63.4501 32.5391 63.2154 32.5547 63.0081 32.4876C62.7045 32.3892 62.3938 32.4724 62.0885 32.3868C61.8304 32.3144 61.535 32.3764 61.2759 32.3059C60.9213 32.2094 60.5622 32.2903 60.2063 32.2066C59.8861 32.1313 59.5451 32.2007 59.2082 32.147C58.7727 32.0775 58.3234 32.0919 57.8799 32.0761C57.7059 32.0699 57.6514 32.126 57.6395 32.3076C57.6323 32.4176 57.6619 32.535 57.6339 32.6378C57.5328 33.0093 57.5392 33.3958 57.4594 33.7699C57.4117 33.9933 57.3805 34.2204 57.3491 34.4469C57.345 34.4769 57.3787 34.5168 57.4029 34.5452C57.5251 34.6886 57.6501 34.546 57.7737 34.5436C58.1874 34.5356 58.6007 34.5683 59.0149 34.4926C59.2914 34.442 59.5781 34.473 59.8634 34.4375C60.3717 34.3741 60.8892 34.3861 61.4028 34.3648C61.8563 34.346 62.3097 34.3248 62.7631 34.3049C62.7831 34.304 62.8055 34.3106 62.823 34.3039C63.1677 34.1722 63.5342 34.2722 63.8901 34.1958C64.2316 34.1223 64.5937 34.144 64.9467 34.1241C64.9667 34.123 64.9895 34.1302 65.0065 34.123C65.2708 34.0107 65.5584 34.0709 65.8316 34.0092C66.0477 33.9604 66.2869 33.999 66.4943 33.9319C66.6633 33.8773 66.8235 33.9078 66.9847 33.8814C67.3219 33.826 67.6575 33.7609 67.9942 33.7025C68.2476 33.6585 68.5045 33.6311 68.7548 33.5743C69.2396 33.4643 69.7252 33.3537 70.202 33.2146C70.5124 33.1241 70.8245 33.0309 71.1129 32.8672C71.2126 32.8107 71.1699 32.8084 71.1298 32.7673C71.089 32.7254 71.0542 32.6687 71.0043 32.6457C70.6839 32.4987 70.3672 32.339 70.0357 32.2221C69.6142 32.0734 69.1797 31.9614 68.6906 31.8336ZM57.608 92.2877C57.3052 92.3078 57.0019 92.3221 56.7 92.351C56.59 92.3616 56.4696 92.3852 56.3787 92.4422C56.2724 92.5089 56.1968 92.6228 56.1014 92.709C55.7841 92.9956 55.389 93.0972 54.9818 93.1255C54.5824 93.1532 54.1794 93.1356 53.7782 93.1284C53.6868 93.1268 53.5829 93.1072 53.508 93.0594C53.3781 92.9766 53.2584 92.8732 53.149 92.7637C53.024 92.6388 52.8862 92.5771 52.7082 92.5877C52.2954 92.6121 51.8822 92.6403 51.4689 92.6468C50.8369 92.6566 50.2046 92.6533 49.5726 92.6464C49.4238 92.6448 49.3191 92.6838 49.2071 92.7902C48.8867 93.0945 48.4926 93.2372 48.0516 93.1876C47.7029 93.1483 47.3605 93.0491 47.0115 93.0186C46.772 92.9977 46.6066 92.9049 46.4975 92.7054C46.4284 92.5792 46.3201 92.5366 46.1934 92.5308C46.0232 92.5229 45.8523 92.5265 45.6818 92.531C45.6515 92.5318 45.6218 92.5609 45.5919 92.577C45.6103 92.6095 45.6206 92.6564 45.6485 92.6721C45.7863 92.7494 45.9246 92.8284 46.0703 92.8885C46.4731 93.0547 46.8792 93.213 47.2849 93.3723C47.6474 93.5146 48.0072 93.6655 48.3757 93.7907C48.6496 93.8838 48.9331 93.9532 49.2166 94.013C49.5879 94.0912 49.9623 94.1562 50.3374 94.2139C50.5577 94.2478 50.7825 94.2522 51.0042 94.2782C51.1648 94.297 51.3237 94.3297 51.4834 94.3559C51.8122 94.41 52.1409 94.5067 52.47 94.5084C53.0531 94.5113 53.6373 94.5631 54.2223 94.4655C54.5982 94.4028 54.987 94.4172 55.3701 94.3975C55.4101 94.3955 55.4562 94.4103 55.4895 94.3952C55.7534 94.2757 56.0412 94.3464 56.3154 94.2851C56.5793 94.2261 56.8647 94.2639 57.1293 94.2068C57.3046 94.169 57.4773 94.1799 57.6477 94.1525C58.0778 94.0832 58.5045 93.9933 58.9333 93.9157C59.3913 93.8327 59.8563 93.7795 60.3069 93.6679C60.9404 93.5111 61.5665 93.3221 62.19 93.1282C62.6417 92.9878 63.0927 92.8412 63.507 92.6C63.624 92.5319 63.6805 92.4636 63.7317 92.3331C63.8287 92.0859 63.7558 91.8434 63.7784 91.6007C63.7925 91.4493 63.7005 91.3829 63.5659 91.4566C63.3961 91.5496 63.2132 91.6206 63.1116 91.8258C62.9967 92.058 62.6355 92.1559 62.4501 92.0459C62.3106 91.9631 62.2271 91.8455 62.2138 91.6754C62.195 91.436 62.1802 91.4317 61.9371 91.5035C61.8563 91.5274 61.7691 91.5343 61.6922 91.5665C61.5292 91.6347 61.3413 91.6335 61.2155 91.8041C61.0196 92.0698 60.7966 92.3158 60.5809 92.5665C60.231 92.9732 59.773 92.9313 59.3171 92.8485C58.9877 92.7887 58.751 92.5589 58.5522 92.3126C58.477 92.2194 58.4002 92.1644 58.3113 92.1732C58.0953 92.1947 57.8824 92.2475 57.608 92.2877Z" fill="black"/><path d="M62.9385 64.4414C62.8984 64.8666 62.8633 65.2622 62.8162 65.6564C62.7857 65.912 62.7333 66.165 62.699 66.4202C62.6719 66.6218 62.6535 66.8248 62.6383 67.0277C62.6147 67.3404 62.6084 67.6548 62.5745 67.9663C62.5245 68.4244 62.4518 68.8799 62.3983 69.3377C62.3678 69.5993 62.3585 69.8633 62.3354 70.1258C62.3194 70.3086 62.3102 70.4939 62.2706 70.672C62.2472 70.7774 62.159 70.8628 62.0434 70.8886C61.9741 70.904 61.8112 70.7507 61.7956 70.6605C61.7872 70.6118 61.794 70.5604 61.7941 70.5102C61.7947 70.1904 61.8502 69.8786 61.9093 69.5651C61.9486 69.3569 61.9173 69.1425 61.9645 68.9261C62.0265 68.6423 61.972 68.3309 62.0472 68.0529C62.1219 67.7766 62.0236 67.4875 62.1539 67.2252C62.1659 67.2011 62.1534 67.1656 62.1558 67.1357C62.1955 66.6503 62.2208 66.163 62.2807 65.6801C62.3296 65.2854 62.3748 64.8921 62.403 64.4949C62.4348 64.0459 62.5232 63.6013 62.5748 63.1533C62.6073 62.8719 62.5961 62.5843 62.643 62.306C62.6959 61.9919 62.6746 61.6726 62.7506 61.3592C62.8073 61.1254 62.786 60.8738 62.821 60.6333C62.8667 60.3191 62.8385 59.996 62.9369 59.6882C62.9486 59.6518 62.9356 59.6082 62.9389 59.5683C62.9784 59.0929 63.0042 58.6157 63.0635 58.1428C63.1129 57.7482 63.1584 57.3549 63.1861 56.9576C63.2174 56.5086 63.3055 56.0639 63.3574 55.616C63.3785 55.4337 63.367 55.2523 63.4116 55.0668C63.4679 54.8329 63.4506 54.5822 63.4829 54.3411C63.5347 53.9533 63.6075 53.5683 63.6584 53.1804C63.6809 53.0085 63.6782 52.8367 63.712 52.6617C63.7834 52.2928 63.791 51.9121 63.8447 51.5391C63.9139 51.0587 64.0059 50.5816 64.0813 50.1021C64.1113 49.9111 64.1196 49.7169 64.1451 49.5251C64.1536 49.4619 64.1806 49.3995 64.2089 49.3415C64.2176 49.3237 64.2622 49.3102 64.2842 49.3165C64.3022 49.3217 64.3199 49.3583 64.322 49.3824C64.3261 49.4311 64.3245 49.4817 64.3164 49.53C64.3023 49.6136 64.2696 49.6954 64.2656 49.779C64.2415 50.2826 64.2522 50.7899 64.1922 51.2889C64.158 51.5737 64.1725 51.8576 64.1388 52.1383C64.0759 52.6627 64.0472 53.1883 64.0141 53.7149C63.9854 54.1701 63.9148 54.6227 63.8971 55.081C63.8811 55.4971 63.835 55.9133 63.778 56.326C63.7235 56.7202 63.6861 57.1145 63.6533 57.511C63.6214 57.896 63.5538 58.2777 63.5359 58.6663C63.5181 59.0524 63.4723 59.4382 63.4171 59.8211C63.3603 60.215 63.3131 60.6079 63.295 61.0064C63.2775 61.3924 63.2192 61.7765 63.1796 62.1616C63.1389 62.5565 63.1153 62.9541 63.0542 63.3459C62.999 63.7 62.9485 64.053 62.9385 64.4414Z" fill="black"/><path d="M51.6301 84.5878C51.4818 84.6933 51.3557 84.7972 51.2138 84.8708C51.0109 84.9761 50.8132 85.0452 50.5607 84.9529C50.3945 84.8922 50.2042 84.8996 50.0704 84.7536C50.0235 84.7025 49.962 84.6598 49.9298 84.6008C49.7199 84.2164 49.5184 83.8273 49.3097 83.4422C49.1536 83.1544 49.0812 82.866 49.1999 82.5388C49.2543 82.3889 49.243 82.2157 49.2667 82.0538C49.2938 81.8694 49.3834 81.7176 49.5112 81.5822C49.6313 81.4547 49.7707 81.3309 49.8438 81.1779C49.9077 81.0442 50.0086 80.9792 50.1169 80.9654C50.243 80.9493 50.4325 80.9553 50.499 81.0333C50.7234 81.2965 51.0606 81.3487 51.3221 81.5343C51.4752 81.6429 51.6464 81.7261 51.7982 81.8363C52.0249 82.0008 52.1257 82.2694 52.2015 82.5097C52.2825 82.7664 52.3488 83.0403 52.3461 83.3286C52.3408 83.8846 52.1094 84.2881 51.6301 84.5878Z" fill="black"/><path d="M56.5389 81.1823C56.4536 81.3588 56.3967 81.5282 56.3082 81.6789C56.2524 81.7739 56.1618 81.8639 56.0653 81.9166C55.7071 82.1121 55.3395 82.289 54.9486 82.414C54.6386 82.5132 54.3716 82.4953 54.127 82.2408C53.7237 81.8212 53.5132 81.325 53.4127 80.7576C53.371 80.522 53.3689 80.2921 53.3625 80.0587C53.3537 79.7396 53.5093 79.479 53.6774 79.2272C53.7627 79.0993 53.8996 78.9982 53.9577 78.8614C54.098 78.5309 54.4609 78.5427 54.6905 78.703C54.9298 78.8702 55.196 78.9813 55.451 79.1159C56.0561 79.4349 56.4672 79.9193 56.4957 80.6506C56.5025 80.8233 56.5339 80.995 56.5389 81.1823Z" fill="black"/><path d="M45.0347 81.6645C45.4011 81.3775 45.7328 81.0845 46.171 80.9372C46.4001 80.8602 46.6015 80.7089 46.8614 80.7117C46.9859 80.713 47.0947 80.7468 47.1751 80.8272C47.5147 81.1675 47.7576 81.5674 47.7523 82.0599C47.7494 82.3322 47.7149 82.6252 47.6071 82.8702C47.4656 83.1918 47.1885 83.4201 46.8486 83.5476C46.4061 83.7135 45.9462 83.7563 45.4783 83.7267C45.4153 83.7227 45.3513 83.6949 45.2929 83.6673C45.1836 83.6155 45.0829 83.5416 44.9698 83.5026C44.8057 83.4462 44.7556 83.3266 44.7495 83.1747C44.7409 82.9607 44.7235 82.7485 44.7012 82.5354C44.6679 82.2183 44.7723 81.9123 45.0347 81.6645Z" fill="black"/><path d="M41.4811 80.2481C41.3673 80.1337 41.313 80.0197 41.3118 79.8738C41.3111 79.7816 41.2748 79.6897 41.2553 79.5975C41.2006 79.3391 41.3353 79.1264 41.4535 78.9277C41.8234 78.306 42.3771 77.9002 43.06 77.6821C43.2321 77.6272 43.4297 77.6474 43.6157 77.6458C43.6527 77.6455 43.697 77.6981 43.7264 77.7355C43.8567 77.9013 43.9962 78.0621 44.1071 78.2405C44.2425 78.4581 44.3477 78.683 44.3345 78.9622C44.3193 79.2823 44.3219 79.5955 44.1483 79.8821C44.069 80.013 44.0012 80.1379 43.8474 80.2075C43.6946 80.2765 43.5576 80.3816 43.4163 80.4747C43.2751 80.5678 43.1254 80.6071 42.9539 80.5976C42.7339 80.5855 42.5126 80.5991 42.292 80.5936C41.9855 80.5861 41.6977 80.5268 41.4811 80.2481Z" fill="black"/><path d="M59.2192 78.8618C59.3699 78.5734 59.6478 78.468 59.877 78.3064C59.9592 78.2485 60.0616 78.2201 60.15 78.1697C60.2706 78.1009 60.3692 78.117 60.5002 78.1752C60.8732 78.3409 61.0499 78.6184 61.0724 79.0153C61.0867 79.2678 61.1172 79.5194 61.1302 79.7719C61.1506 80.1666 60.9549 80.4352 60.643 80.6616C60.456 80.7973 60.2723 80.844 60.0522 80.8382C59.7021 80.829 59.3514 80.8405 59.0012 80.833C58.889 80.8306 58.774 80.8067 58.6665 80.7728C58.5207 80.7268 58.435 80.5722 58.419 80.4159C58.3835 80.0698 58.5132 79.8075 58.7514 79.5569C58.9362 79.3624 59.0557 79.1059 59.2192 78.8618Z" fill="black"/><path d="M62.3814 81.3029C62.5376 81.0591 62.6289 81.0354 62.851 81.1352C63.1532 81.2711 63.2566 81.5523 63.355 81.8261C63.4401 82.063 63.4852 82.3149 63.538 82.5623C63.5542 82.6379 63.5434 82.7214 63.5338 82.7999C63.5223 82.8934 63.4741 82.9885 63.4848 83.0777C63.5365 83.5097 63.0743 84.1447 62.6143 84.2738C62.2564 84.3743 62.0325 84.2676 61.9164 83.8986C61.8463 83.676 61.7603 83.4505 61.7415 83.2213C61.7099 82.8372 61.8514 82.4756 61.9882 82.1238C62.0955 81.8479 62.2389 81.5861 62.3814 81.3029Z" fill="black"/><path d="M62.5771 73.1208C62.679 73.4641 62.667 73.7746 62.5504 74.0809C62.4814 74.2623 62.335 74.3671 62.1674 74.4465C61.9818 74.5342 61.8073 74.6128 61.6874 74.8115C61.5375 75.0598 61.1624 74.9879 61.0104 74.6865C60.9726 74.6116 60.9425 74.517 60.8797 74.4734C60.6502 74.314 60.6557 74.0901 60.6434 73.8452C60.6128 73.2315 60.8863 72.7589 61.285 72.3373C61.4782 72.1331 61.5245 72.1462 61.8011 72.2485C62.0634 72.3455 62.1798 72.5745 62.3357 72.7705C62.4188 72.8751 62.4968 72.9838 62.5771 73.1208Z" fill="black"/><path d="M63.8269 78.2892C63.7117 78.3043 63.6115 78.305 63.5113 78.3041C63.2472 78.3018 62.988 78.0195 62.9979 77.7807C63.0074 77.5506 62.9805 77.3251 63.1105 77.1035C63.1967 76.9567 63.2036 76.7617 63.2388 76.5869C63.3105 76.2312 63.6022 75.9605 63.9483 75.9576C64.0786 75.9565 64.2161 75.9889 64.2636 76.1475C64.3037 76.2813 64.364 76.4126 64.3804 76.5492C64.4369 77.0185 64.3372 77.4747 64.1885 77.9125C64.1399 78.0558 63.9612 78.1548 63.8269 78.2892Z" fill="black"/><path d="M60.725 45.4704C61.0881 45.4593 61.4169 45.3487 61.7537 45.2856C62.006 45.2385 62.2611 45.2054 62.5121 45.1523C63.0187 45.0453 63.5242 44.9324 64.0284 44.8145C64.2204 44.7697 64.3616 44.7921 64.3826 44.902C64.4197 45.0965 64.2502 45.0924 64.1429 45.1198C63.6788 45.2385 63.2117 45.3455 62.7454 45.4551C62.3975 45.5368 62.0511 45.6263 61.7004 45.6933C61.4088 45.7489 61.1086 45.761 60.8182 45.8212C60.4927 45.8886 60.1559 45.8799 59.8358 45.9909C59.6947 46.0398 59.5356 46.0038 59.3784 46.0469C59.1476 46.1102 58.8879 46.0664 58.6557 46.1266C58.3818 46.1977 58.0928 46.1166 57.8297 46.2379C57.8132 46.2455 57.79 46.2379 57.77 46.239C57.427 46.2589 57.0738 46.2349 56.7437 46.311C56.3776 46.3954 56.0003 46.2781 55.6463 46.4188C55.6289 46.4257 55.6064 46.4191 55.5864 46.4198C55.0426 46.4398 54.4962 46.4329 53.9559 46.4873C53.3712 46.5462 52.7855 46.5025 52.2039 46.5463C50.6264 46.6651 49.048 46.5902 47.4706 46.5872C46.8485 46.586 46.2195 46.5822 45.5998 46.5256C45.2346 46.4922 44.8685 46.5264 44.5104 46.4727C44.1661 46.4211 43.8184 46.4605 43.4821 46.4079C43.2063 46.3648 42.9348 46.3791 42.6622 46.3578C42.2267 46.3237 41.7917 46.2819 41.357 46.238C41.0018 46.2022 40.6471 46.1608 40.2927 46.1178C39.8155 46.0598 39.3367 46.0105 38.8624 45.9342C38.3295 45.8484 37.801 45.7354 37.2701 45.6366C36.9341 45.574 36.5939 45.5305 36.2618 45.4519C35.752 45.3313 35.2508 45.173 34.7399 45.0581C34.1813 44.9325 33.6671 44.6901 33.1396 44.4842C32.9244 44.4002 32.7358 44.2452 32.5413 44.1135C32.5027 44.0873 32.4923 44.0197 32.4689 43.9712C32.526 43.9636 32.588 43.9379 32.6392 43.952C32.7822 43.9913 32.9206 44.0469 33.0608 44.0963C33.4638 44.2383 33.8606 44.402 34.2711 44.5172C34.8665 44.6843 35.4551 44.8777 36.0696 44.9785C36.5143 45.0515 36.9489 45.1843 37.3918 45.271C37.6927 45.3298 38.0014 45.3478 38.3045 45.397C38.6222 45.4486 38.9363 45.5228 39.2542 45.5734C39.4646 45.6068 39.6823 45.5987 39.8904 45.6407C40.134 45.6898 40.3843 45.6702 40.6266 45.7498C40.7972 45.8058 40.9887 45.8021 41.1716 45.8158C41.4942 45.84 41.8279 45.8138 42.1373 45.8895C42.4436 45.9644 42.7616 45.8646 43.0544 45.9968C43.0711 46.0044 43.0942 45.997 43.1142 45.9979C43.5476 46.0178 43.9834 46.0155 44.4136 46.064C44.9075 46.1197 45.4065 46.0692 45.8932 46.1319C46.3301 46.1882 46.7621 46.1485 47.1948 46.1793C48.5205 46.2738 49.8491 46.2637 51.1745 46.225C51.8789 46.2044 52.5866 46.2267 53.2867 46.1642C53.6821 46.129 54.0789 46.1694 54.4662 46.1096C54.8012 46.0579 55.1352 46.0891 55.4658 46.0528C55.9705 45.9973 56.4742 45.9508 56.9822 45.9323C57.368 45.9183 57.7522 45.8584 58.1369 45.8166C58.4918 45.7781 58.8471 45.7415 59.2011 45.6953C59.7046 45.6295 60.207 45.5558 60.725 45.4704Z" fill="black"/><path d="M66.0555 44.8978C65.9502 44.9129 65.8598 44.917 65.7699 44.912C65.5976 44.9024 65.4261 44.7708 65.408 44.6399C65.3693 44.36 65.4591 44.1635 65.6603 44.0878C65.9556 43.9767 66.2948 44.1886 66.3076 44.5014C66.3104 44.5707 66.2763 44.6499 66.2374 44.7105C66.195 44.7764 66.1272 44.826 66.0555 44.8978Z" fill="black"/><path d="M56.2528 8.98999C56.2561 9.31097 56.2044 9.59278 56.137 9.87538C56.0925 10.0621 56.0922 10.2594 56.0721 10.452C56.032 10.8372 55.9966 11.2229 55.9504 11.6074C55.8955 12.0652 55.8307 12.5219 55.7711 12.9792C55.7102 13.4463 55.651 13.9137 55.5901 14.3809C55.5306 14.8382 55.4683 15.2951 55.41 15.7526C55.3479 16.2397 55.3012 16.7291 55.2253 17.214C55.1556 17.6602 55.0769 18.1034 55.0422 18.5556C55.01 18.9748 54.9261 19.3898 54.868 19.8072C54.8057 20.2541 54.7481 20.7016 54.6865 21.1486C54.6277 21.5758 54.5711 22.0035 54.5046 22.4296C54.4519 22.7674 54.3784 23.1021 54.3284 23.4402C54.3031 23.6116 54.3121 23.7835 54.275 23.9593C54.2016 24.3074 54.1925 24.6684 54.1426 25.0221C54.092 25.3802 54.018 25.735 53.9658 26.0929C53.9172 26.4266 53.8909 26.7636 53.8416 27.0972C53.7902 27.4452 53.7207 27.7905 53.6639 28.1377C53.6376 28.2992 53.6237 28.4626 53.6025 28.6249C53.5427 29.0822 53.4889 29.5403 53.4197 29.9962C53.3713 30.3146 53.3028 30.6299 53.2402 30.946C53.2276 31.0095 53.2051 31.072 53.1787 31.1312C53.1701 31.1505 53.1332 31.1695 53.1117 31.167C53.0928 31.1648 53.0621 31.1317 53.0629 31.1134C53.0727 30.9079 53.087 30.7026 53.1016 30.4973C53.1036 30.4695 53.1182 30.4427 53.1202 30.415C53.1412 30.122 53.1522 29.828 53.1836 29.5362C53.2112 29.2803 53.2625 29.0269 53.3004 28.772C53.3077 28.7229 53.3021 28.6717 53.3014 28.6215C53.2971 28.301 53.3585 27.9896 53.4168 27.676C53.4518 27.4873 53.4293 27.2929 53.4726 27.0971C53.5311 26.8326 53.5135 26.5523 53.5451 26.2807C53.5724 26.0447 53.6269 25.812 53.6615 25.5767C53.6883 25.3952 53.7055 25.2121 53.7226 25.0292C53.7643 24.5839 53.7937 24.1373 53.8465 23.6933C53.8927 23.3048 53.9708 22.9201 54.0218 22.532C54.0548 22.2808 54.0415 22.022 54.0911 21.7751C54.1381 21.5409 54.1207 21.301 54.1972 21.0677C54.2562 20.8879 54.2458 20.6852 54.265 20.4925C54.3056 20.0873 54.3332 19.6803 54.3888 19.2772C54.4573 18.7806 54.5376 18.2868 54.5731 17.7851C54.5985 17.4259 54.6908 17.0717 54.7454 16.7141C54.7746 16.5229 54.7878 16.3292 54.8071 16.1366C54.8477 15.7314 54.8677 15.3228 54.933 14.9217C55.0073 14.4656 55.0553 14.0073 55.1167 13.5503C55.1767 13.1031 55.2472 12.6575 55.2906 12.2079C55.3231 11.8722 55.3618 11.5367 55.4117 11.2032C55.4623 10.8651 55.5341 10.5302 55.5886 10.1926C55.6179 10.0116 55.6311 9.82789 55.6504 9.64527C55.691 9.26015 55.7273 8.87454 55.7719 8.48988C55.8284 8.00211 55.8901 7.51492 55.9528 7.0279C55.9648 6.93473 55.9766 6.83636 56.0157 6.75314C56.0661 6.64568 56.1462 6.58146 56.2888 6.57157C56.4727 6.55882 56.4883 6.70299 56.5484 6.79779C56.5801 6.84796 56.5638 6.93651 56.5523 7.0049C56.4957 7.34218 56.4251 7.67729 56.3761 8.01559C56.3413 8.25626 56.3363 8.50112 56.3111 8.7434C56.3035 8.81678 56.2729 8.88777 56.2528 8.98999Z" fill="black"/><path d="M53.3467 32.6623C52.9846 32.8058 52.7701 32.6906 52.6305 32.3711C52.5511 32.1893 52.606 32.0857 52.7146 31.9691C52.8384 31.8361 52.9982 31.7942 53.1617 31.849C53.5155 31.9675 53.5971 32.4662 53.3467 32.6623Z" fill="black"/><path d="M52.3378 89.4548C52.2721 89.9136 52.1574 90.3216 51.9201 90.6949C51.7348 90.9866 51.4891 91.1611 51.2427 91.077C51.0374 91.007 50.8861 90.8448 50.7735 90.6601C50.6183 90.4053 50.4614 90.1499 50.3302 89.8824C50.0835 89.3798 50.1107 88.8629 50.357 88.3751C50.5115 88.0692 50.7827 87.8777 51.1521 87.8883C51.4049 87.8956 51.6602 87.8566 51.9084 87.9465C52.1461 88.0326 52.3323 88.2675 52.3366 88.5233C52.3417 88.8237 52.3378 89.1242 52.3378 89.4548Z" fill="black"/><path d="M32.6873 32.6623C32.6196 32.8254 32.4983 32.8801 32.3629 32.8519C32.2688 32.8323 32.1281 32.7663 32.1131 32.6979C32.0867 32.578 32.0498 32.4291 32.1862 32.313C32.3066 32.2106 32.4411 32.2417 32.551 32.2691C32.635 32.29 32.7334 32.3912 32.7036 32.5272C32.6952 32.5655 32.7023 32.6072 32.6873 32.6623Z" fill="black"/><text x="0" y="115" fill="#000000" font-size="5px" font-weight="bold" font-family="'Helvetica Neue', Helvetica, Arial-Unicode, Arial, Sans-serif">Created by Smruti Karalgikar</text><text x="0" y="120" fill="#000000" font-size="5px" font-weight="bold" font-family="'Helvetica Neue', Helvetica, Arial-Unicode, Arial, Sans-serif">from the Noun Project</text></svg>